# xmcd
#
# Track frame offsets:
#	150
#	19725
#	33603
#	53126
#	75438
#	92745
#	113049
#	132405
#	151441
#	172586
#	190807
#	208487
#	229191
#	248113
#
# Disc length: 3561 seconds
#
# Revision: 0
# Processed by: cddbd v1.5.1PL0 Copyright (c) Steve Scherf et al.
# Submitted via: dBpowerAMP V4.0
#
DISCID=b30de70e
DTITLE=Eternal - Now and Forever
DYEAR=2002
DGENRE=Pop
TTITLE0=Power Of A Woman
TTITLE1=All My Love
TTITLE2=Angel Of Mine
TTITLE3=What Do You Mean
TTITLE4=Good Thing
TTITLE5=How Many Tears
TTITLE6=I Wanna Be The Only One
TTITLE7=Just A Step From Heaven
TTITLE8=Grace Under Pressure
TTITLE9=Promises
TTITLE10=Stay
TTITLE11=Thin About Me
TTITLE12=Why Am I Waiting
TTITLE13=The Megamix
EXTD=
EXTT0=
EXTT1=
EXTT2=
EXTT3=
EXTT4=
EXTT5=
EXTT6=
EXTT7=
EXTT8=
EXTT9=
EXTT10=
EXTT11=
EXTT12=
EXTT13=
PLAYORDER=
